<?xml version="1.0" standalone="no"?>
<!DOCTYPE svg PUBLIC "-//W3C//DTD SVG 20010904//EN"
 "http://www.w3.org/TR/2001/REC-SVG-20010904/DTD/svg10.dtd">
<svg version="1.0" xmlns="http://www.w3.org/2000/svg"
 width="192.000000pt" height="192.000000pt" viewBox="0 0 192.000000 192.000000"
 preserveAspectRatio="xMidYMid meet">
<metadata>
Created by potrace 1.11, written by Peter Selinger 2001-2013
</metadata>
<g transform="translate(0.000000,192.000000) scale(0.100000,-0.100000)"
fill="#000000" stroke="none">
<path d="M773 1669 c-143 -17 -243 -106 -296 -261 -4 -11 -16 -18 -30 -18 -33
0 -132 -35 -181 -64 -141 -83 -238 -267 -239 -451 -1 -277 144 -488 378 -549
59 -15 203 -16 268 -2 37 9 107 36 133 53 20 13 22 11 28 -27 11 -70 84 -96
135 -49 12 11 22 25 22 32 1 7 3 21 4 32 2 11 6 54 9 95 4 41 9 97 12 123 13
112 -11 133 -158 144 -183 13 -207 11 -229 -16 -26 -31 -25 -91 1 -119 12 -12
25 -23 30 -23 6 -1 15 -3 20 -4 6 -1 27 -3 48 -4 l37 -1 -25 -20 c-32 -26
-112 -50 -181 -54 -154 -9 -287 74 -340 213 -32 83 -36 222 -8 299 53 144 162
219 323 224 l74 2 13 65 c14 82 30 120 60 153 51 54 100 64 227 47 89 -12 93
-12 112 8 26 29 35 68 21 102 -24 56 -136 85 -268 70z"/>
<path d="M1189 1466 c-83 -18 -174 -56 -228 -97 l-49 -37 -5 41 c-9 69 -62
101 -119 71 -29 -15 -43 -50 -41 -101 1 -13 1 -80 2 -149 l1 -126 30 -30 30
-30 118 7 c199 11 203 12 225 57 11 22 12 39 6 61 -13 46 -33 60 -84 61 -25 1
-45 4 -45 7 0 11 80 60 123 75 163 58 342 25 450 -83 200 -200 153 -596 -87
-737 -91 -53 -240 -70 -353 -40 -84 22 -132 -6 -133 -77 0 -61 42 -88 169
-108 85 -13 217 -2 289 23 248 88 404 325 404 616 1 272 -150 501 -383 581
-76 26 -234 34 -320 15z"/>
</g>
</svg>
