<?xml version="1.0" encoding="utf-8"?>
<!-- Generator: Adobe Illustrator 21.1.0, SVG Export Plug-In . SVG Version: 6.00 Build 0)  -->
<svg version="1.1" id="Layer_1" xmlns="http://www.w3.org/2000/svg" xmlns:xlink="http://www.w3.org/1999/xlink" x="0px" y="0px"
	 viewBox="0 0 803.5 803.5" style="enable-background:new 0 0 803.5 803.5;" xml:space="preserve">
<style type="text/css">
	.st0{fill:#FAC711;}
</style>
<path class="st0" d="M502.6,470.8c-20.5,0-37.1-16.6-37.2-37.2h74.3C539.8,454.1,523.1,470.8,502.6,470.8 M535.1,412.4h-64.9
	l32.5-86.5L535.1,412.4z M300.9,470.8c-20.5,0-37.1-16.6-37.2-37.2h74.3C338.1,454.1,321.4,470.8,300.9,470.8 M300.9,325.8
	l32.5,86.5h-64.9L300.9,325.8z M561,423c0-1.3-0.3-2.6-0.7-3.7l0,0l-47.8-127.4h0c-1.5-4-5.4-6.9-9.9-6.9h0h-90.2v-42.5
	c0-5.9-4.7-10.6-10.6-10.6c-5.9,0-10.6,4.7-10.6,10.6V285h-90.2h0c-4.6,0-8.4,2.9-9.9,6.9l0,0l-47.8,127.4l0,0
	c-0.4,1.2-0.7,2.4-0.7,3.7v10.6v0c0,32.2,26.1,58.4,58.4,58.4c32.2,0,58.4-26.1,58.4-58.4v0v0V423c0-1.3-0.3-2.6-0.7-3.7l0,0
	l-42.4-113h74.9v244.1h-21.2h0c-5.9,0-10.6,4.8-10.6,10.6s4.7,10.6,10.6,10.6h63.7c5.9,0,10.6-4.7,10.6-10.6s-4.7-10.6-10.6-10.6h0
	h-21.2V306.2h74.9l-42.4,113l0,0c-0.4,1.2-0.7,2.4-0.7,3.7v10.6v0c0,32.2,26.1,58.4,58.4,58.4c32.2,0,58.4-26.1,58.4-58.4v0v0V423z"
	/>
<path class="st0" d="M401.8,11.9c-215.3,0-389.8,174.5-389.8,389.8c0,215.3,174.5,389.8,389.8,389.8s389.8-174.5,389.8-389.8
	C791.6,186.5,617.1,11.9,401.8,11.9z M401.8,771.1c-204,0-369.3-165.4-369.3-369.3c0-204,165.4-369.3,369.3-369.3
	s369.3,165.4,369.3,369.3C771.1,605.7,605.7,771.1,401.8,771.1z"/>
</svg>
