<?xml version="1.0" encoding="utf-8"?>
<!-- Generator: Adobe Illustrator 21.1.0, SVG Export Plug-In . SVG Version: 6.00 Build 0)  -->
<svg version="1.1" id="Layer_1" xmlns="http://www.w3.org/2000/svg" xmlns:xlink="http://www.w3.org/1999/xlink" x="0px" y="0px"
	 viewBox="0 0 803.5 803.5" style="enable-background:new 0 0 803.5 803.5;" xml:space="preserve">
<style type="text/css">
	.st0{fill:#FFC600;}
	.st1{fill:#FFFFFF;}
</style>
<path class="st0" d="M803.5,401.8c0,221.9-179.9,401.8-401.8,401.8C179.9,803.5,0,623.6,0,401.8C0,179.9,179.9,0,401.8,0
	C623.6,0,803.5,179.9,803.5,401.8"/>
<path class="st1" d="M520.4,482.9c-24.1,0-43.7-19.6-43.7-43.7h87.4C564.1,463.3,544.6,482.9,520.4,482.9 M558.6,414.2h-76.4
	l38.2-101.8L558.6,414.2z M283.1,482.9c-24.1,0-43.7-19.6-43.7-43.7h87.4C326.8,463.3,307.3,482.9,283.1,482.9 M283.1,312.4
	l38.2,101.8h-76.4L283.1,312.4z M589.1,426.7c0-1.6-0.3-3-0.8-4.4l0,0l-56.2-149.9h0c-1.8-4.7-6.3-8.1-11.6-8.1h0H414.2v-50
	c0-6.9-5.6-12.5-12.5-12.5c-6.9,0-12.5,5.6-12.5,12.5v50H283.1h0c-5.4,0-9.9,3.4-11.7,8.1l0,0l-56.2,149.9l0,0
	c-0.5,1.4-0.8,2.8-0.8,4.4v12.5v0c0,37.9,30.7,68.7,68.7,68.7c37.9,0,68.7-30.7,68.7-68.7v0v0v-12.5c0-1.6-0.3-3-0.8-4.4l0,0
	l-49.9-133h88.1v287.2h-24.9h0c-6.9,0-12.5,5.6-12.5,12.5c0,6.9,5.6,12.5,12.5,12.5h74.9c6.9,0,12.5-5.6,12.5-12.5
	c0-6.9-5.6-12.5-12.5-12.5h0h-24.9V289.4h88.1l-49.9,133l0,0c-0.5,1.4-0.8,2.8-0.8,4.4v12.5v0c0,37.9,30.7,68.7,68.7,68.7
	c37.9,0,68.7-30.7,68.7-68.7v0v0V426.7z"/>
</svg>
