<?xml version="1.0" encoding="UTF-8" standalone="no"?>
<svg width="48px" height="48px" viewBox="0 0 48 48" version="1.1" xmlns="http://www.w3.org/2000/svg" xmlns:xlink="http://www.w3.org/1999/xlink">
    <!-- Generator: Sketch 41.2 (35397) - http://www.bohemiancoding.com/sketch -->
    <title>Artboard</title>
    <desc>Created with Sketch.</desc>
    <defs>
        <polygon id="path-1" points="9.2e-05 46.1176471 45.24836 46.1176471 45.24836 0.753562353 9.2e-05 0.753562353"></polygon>
    </defs>
    <g id="Page-1" stroke="none" stroke-width="1" fill="none" fill-rule="evenodd">
        <g id="Artboard">
            <g id="Page-1" transform="translate(1.000000, 0.000000)">
                <g id="Group-3" transform="translate(0.000000, 0.168883)">
                    <path d="M22.623812,46.1181082 C10.129292,46.1181082 9.2e-05,35.9630024 9.2e-05,23.4356047 C9.2e-05,10.9082071 10.129292,0.753101176 22.623812,0.753101176 C35.119252,0.753101176 45.248452,10.9082071 45.248452,23.4356047 C45.248452,35.9630024 35.119252,46.1181082 22.623812,46.1181082 Z" id="Fill-1" stroke="#979797"></path>
                    <mask id="mask-2" fill="white">
                        <use xlink:href="#path-1"></use>
                    </mask>
                    <g id="Clip-2"></g>
                </g>
                <path d="M29.305312,28.1877515 C27.945552,28.1877515 26.844312,27.0827727 26.844312,25.7204574 L26.844312,25.7195351 L31.766312,25.7195351 C31.766312,27.080928 30.665072,28.1877515 29.305312,28.1877515 L29.305312,28.1877515 Z M31.455352,24.3092574 L27.155272,24.3092574 L29.305312,18.5620762 L31.455352,24.3092574 Z M15.943232,28.1877515 C14.583472,28.1877515 13.482232,27.0827727 13.481312,25.7204574 L13.481312,25.7195351 L18.404232,25.7195351 C18.404232,27.080928 17.302992,28.1877515 15.943232,28.1877515 L15.943232,28.1877515 Z M15.943232,18.5620762 L18.093272,24.3092574 L13.793192,24.3092574 L15.943232,18.5620762 Z M33.172992,25.0139351 C33.172992,24.9272339 33.155512,24.8451445 33.126992,24.7676668 L33.128832,24.7667445 L29.964032,16.3060009 L29.963112,16.3060009 C29.862832,16.0394409 29.607992,15.8485139 29.307152,15.8485139 L29.305312,15.8485139 L23.327152,15.8485139 L23.327152,13.0279586 C23.327152,12.6387256 23.012512,12.3232809 22.624272,12.3232809 C22.236032,12.3232809 21.921392,12.6387256 21.921392,13.0279586 L21.921392,15.8485139 L15.945072,15.8485139 L15.943232,15.8485139 C15.641472,15.8485139 15.386632,16.0394409 15.286352,16.3069233 L15.284512,16.3060009 L12.119712,24.7667445 L12.121552,24.7676668 C12.093032,24.8451445 12.075552,24.9272339 12.075552,25.0139351 L12.075552,25.7195351 L12.075552,25.7195351 L12.075552,25.7204574 C12.074632,27.8621609 13.806072,29.5971068 15.943232,29.5971068 C18.078552,29.5971068 19.811832,27.8621609 19.810912,25.7204574 L19.810912,25.7204574 L19.810912,25.7195351 L19.810912,25.0139351 C19.810912,24.9272339 19.793432,24.8451445 19.764912,24.7676668 L19.766752,24.7667445 L16.957992,17.2587915 L21.921392,17.2587915 L21.921392,33.4756009 L20.516552,33.4756009 L20.514712,33.4756009 C20.126472,33.4756009 19.810912,33.7910456 19.810912,34.1802786 C19.810912,34.5695115 20.126472,34.8858786 20.514712,34.8858786 L24.733832,34.8858786 C25.122072,34.8858786 25.437632,34.5695115 25.437632,34.1802786 C25.437632,33.7910456 25.122072,33.4756009 24.733832,33.4756009 L24.731992,33.4756009 L23.327152,33.4756009 L23.327152,17.2587915 L28.290552,17.2587915 L25.481792,24.7667445 L25.483632,24.7676668 C25.455112,24.8451445 25.437632,24.9272339 25.437632,25.0139351 L25.437632,25.7195351 L25.437632,25.7195351 L25.437632,25.7204574 C25.436712,27.8621609 27.168152,29.5971068 29.305312,29.5971068 C31.440632,29.5971068 33.173912,27.8621609 33.172992,25.7204574 L33.172992,25.7204574 L33.172992,25.7195351 L33.172992,25.0139351 Z" id="Fill-4" fill="#979797"></path>
            </g>
        </g>
    </g>
</svg>