<?xml version="1.0" encoding="utf-8"?>
<!-- Generator: Adobe Illustrator 21.1.0, SVG Export Plug-In . SVG Version: 6.00 Build 0)  -->
<svg version="1.1" id="Layer_1" xmlns="http://www.w3.org/2000/svg" xmlns:xlink="http://www.w3.org/1999/xlink" x="0px" y="0px"
	 viewBox="0 0 612 581.3" style="enable-background:new 0 0 612 581.3;" xml:space="preserve">
<style type="text/css">
	.st0{fill:#322B82;}
	.st1{fill:#1B58A5;}
</style>
<path class="st0" d="M704.3,289.9c-0.1-0.1-0.2-0.2-0.4-0.4c0.1,0,0.2,0,0.4,0C704.3,289.7,704.3,289.8,704.3,289.9z"/>
<g>
	<g>
		<g>
			<path class="st1" d="M406.2,348.4c-5-5.1-13.2-5.1-18.2,0l0,0l-34.4,34.8l-17.2-17.3c0,0,0,0,0,0c-5-5.1-13.2-5.1-18.2,0
				c-5,5.1-5,13.3,0,18.4h0l26.3,26.6l0,0c5,5.1,13.2,5.1,18.2,0l43.5-44c0,0,0,0,0,0C411.2,361.7,411.2,353.5,406.2,348.4z"/>
		</g>
		<path class="st1" d="M272.4,209.8c33,0,59.9-27.2,59.9-60.6s-26.9-60.6-59.9-60.6c-33,0-59.9,27.2-59.9,60.6
			S239.4,209.8,272.4,209.8z M272.4,112.8c19.8,0,35.9,16.3,35.9,36.4s-16.1,36.4-35.9,36.4c-19.8,0-35.9-16.3-35.9-36.4
			S252.6,112.8,272.4,112.8z"/>
		<path class="st1" d="M368.8,282.6c-17.7-35.9-54.2-60.7-96.4-60.7c-59.5,0-107.8,49-107.8,109.1c0,6.7,5.4,12.1,12,12.1h30V416
			c0,6.7,5.4,12.1,12,12.1h66.9c16.6,28.9,47.5,48.5,82.9,48.5c52.9,0,95.9-43.5,95.9-97C464.1,326.3,421.4,282.9,368.8,282.6z
			 M230.5,403.9v-72.8c0-6.7-5.4-12.1-12-12.1h-29.1c5.8-41.1,40.8-72.8,83-72.8c29.9,0,56.2,15.9,71,39.8
			c-40.8,11.1-71,48.8-71,93.6c0,8.4,1.2,16.5,3.2,24.3H230.5z M368.3,452.4c-39.6,0-71.9-32.6-71.9-72.8s32.2-72.8,71.9-72.8
			c39.6,0,71.9,32.6,71.9,72.8S407.9,452.4,368.3,452.4z"/>
	</g>
</g>
</svg>
