<?xml version="1.0" encoding="UTF-8" standalone="no"?>
<svg width="36px" height="46px" viewBox="0 0 36 46" version="1.1" xmlns="http://www.w3.org/2000/svg" xmlns:xlink="http://www.w3.org/1999/xlink">
    <!-- Generator: Sketch 41.2 (35397) - http://www.bohemiancoding.com/sketch -->
    <title>beneficiario-evaluado-blanco</title>
    <desc>Created with Sketch.</desc>
    <defs></defs>
    <g id="Page-1" stroke="none" stroke-width="1" fill="none" fill-rule="evenodd">
        <g id="beneficiario-evaluado-blanco" fill="#4478BC">
            <g id="Group">
                <path d="M28.8,30.6 C28.2,30 27.3,30 26.7,30.6 L26.7,30.6 L22.7,34.7 L20.7,32.7 L20.7,32.7 C20.1,32.1 19.2,32.1 18.6,32.7 C18,33.3 18,34.2 18.6,34.8 L18.6,34.8 L21.7,37.9 L21.7,37.9 C22.3,38.5 23.2,38.5 23.8,37.9 L28.9,32.8 L28.9,32.8 C29.4,32.1 29.4,31.2 28.8,30.6 Z" id="Shape"></path>
                <path d="M13.2,14.5 C17,14.5 20.2,11.3 20.2,7.4 C20.2,3.5 17.1,0.3 13.2,0.3 C9.4,0.3 6.2,3.5 6.2,7.4 C6.2,11.3 9.4,14.5 13.2,14.5 Z M13.2,3.2 C15.5,3.2 17.4,5.1 17.4,7.4 C17.4,9.7 15.5,11.6 13.2,11.6 C10.9,11.6 9,9.7 9,7.4 C9,5.1 10.9,3.2 13.2,3.2 Z" id="Shape"></path>
                <path d="M24.4,22.9 C22.3,18.7 18.1,15.8 13.2,15.8 C6.3,15.8 0.6,21.5 0.6,28.5 C0.6,29.3 1.2,29.9 2,29.9 L5.5,29.9 L5.5,38.4 C5.5,39.2 6.1,39.8 6.9,39.8 L14.7,39.8 C16.6,43.2 20.2,45.4 24.3,45.4 C30.5,45.4 35.5,40.3 35.5,34.1 C35.5,28 30.6,23 24.4,22.9 Z M8.3,37 L8.3,28.5 C8.3,27.7 7.7,27.1 6.9,27.1 L3.5,27.1 C4.2,22.3 8.3,18.6 13.2,18.6 C16.7,18.6 19.7,20.5 21.5,23.2 C16.7,24.5 13.2,28.9 13.2,34.1 C13.2,35.1 13.3,36 13.6,36.9 L8.3,36.9 L8.3,37 Z M24.4,42.7 C19.8,42.7 16,38.9 16,34.2 C16,29.5 19.8,25.7 24.4,25.7 C29,25.7 32.8,29.5 32.8,34.2 C32.8,38.9 29,42.7 24.4,42.7 Z" id="Shape"></path>
            </g>
        </g>
    </g>
</svg>