<?xml version="1.0" encoding="utf-8"?>
<!-- Generator: Adobe Illustrator 22.1.0, SVG Export Plug-In . SVG Version: 6.00 Build 0)  -->
<svg version="1.1" id="Layer_1" xmlns="http://www.w3.org/2000/svg" xmlns:xlink="http://www.w3.org/1999/xlink" x="0px" y="0px"
	 viewBox="0 0 48 48" style="enable-background:new 0 0 48 48;" xml:space="preserve">
<style type="text/css">
	.st0{fill:#1258B2;stroke:#1258B2;stroke-width:0.3;stroke-miterlimit:10;}
</style>
<g>
	<circle class="st0" cx="6.4" cy="28" r="1.4"/>
	<circle class="st0" cx="15.5" cy="28" r="1.4"/>
	<circle class="st0" cx="22.2" cy="16" r="1.4"/>
	<circle class="st0" cx="32.5" cy="33.3" r="1.4"/>
	<circle class="st0" cx="40.9" cy="5.4" r="1.4"/>
	<path class="st0" d="M0.5,43.4c0,0-0.1,0-0.1,0c-0.2-0.1-0.3-0.3-0.2-0.4l5.9-15.1c0-0.1,0.2-0.2,0.3-0.2h8.8l6.8-11.9
		c0.1-0.1,0.2-0.2,0.3-0.2c0.1,0,0.2,0.1,0.3,0.2l9.9,16.7l8.2-27.1c0-0.1,0.1-0.2,0.3-0.2c0.1,0,0.3,0,0.3,0.2l6.7,11
		c0.1,0.2,0,0.4-0.1,0.5c-0.2,0.1-0.4,0-0.5-0.1L41,6.2l-8.2,27.1c0,0.1-0.1,0.2-0.3,0.2c-0.1,0-0.3,0-0.3-0.2l-9.9-16.8l-6.6,11.6
		c-0.1,0.1-0.2,0.2-0.3,0.2H6.6L0.8,43.2C0.7,43.4,0.6,43.4,0.5,43.4z"/>
</g>
</svg>
