<?xml version="1.0" encoding="utf-8"?>
<!-- Generator: Adobe Illustrator 22.1.0, SVG Export Plug-In . SVG Version: 6.00 Build 0)  -->
<svg version="1.1" id="Layer_1" xmlns="http://www.w3.org/2000/svg" xmlns:xlink="http://www.w3.org/1999/xlink" x="0px" y="0px"
	 viewBox="0 0 48 48" style="enable-background:new 0 0 48 48;" xml:space="preserve">
<style type="text/css">
	.st0{fill:#1258B2;}
</style>
<g>
	<path class="st0" d="M22.7,39.7c-0.2,0-0.4-0.1-0.5-0.3c-0.1-0.2-0.2-0.4-0.2-0.6l0.3-3.6l-2.4,1.6c-2,1.3-4.4,2-7.4,2
		C3.9,38.9,0,32.2,0,26c0-3.8,2.3-11.1,11-12l0.9-0.1l0.3-0.9c0.6-2.2,1.8-3.9,3.5-4.9C17,7.4,18.6,7,20.4,7c2.2,0,4,0.6,4,0.6
		c0.2,0.1,0.4,0.2,0.5,0.4c0.1,0.2,0.1,0.4,0,0.6c-0.1,0.3-0.4,0.5-0.8,0.5c-0.1,0-0.2,0-0.3,0c-0.3-0.1-1.8-0.5-3.5-0.5
		c-1.5,0-2.8,0.3-3.9,1c-1.7,1-2.7,2.8-3.1,5.4l-0.1,0.7h-0.7c-7.5,0-11,5.4-11,10.4c0,5.6,3.4,11.2,10.9,11.2c3.7,0,6-1.2,7.2-2.3
		l2.6-2.2l-5.8-0.4c-0.4,0-0.8-0.4-0.8-0.9c0-0.4,0.4-0.8,0.8-0.8l6.8,0.4c0.2,0,0.4,0.1,0.6,0.3c0.1,0.2,0.2,0.4,0.2,0.6L23.5,39
		C23.5,39.4,23.1,39.7,22.7,39.7L22.7,39.7z"/>
	<path class="st0" d="M33,41c-2.9,0-5.1-0.7-5.2-0.7c-0.2-0.1-0.4-0.2-0.5-0.4c-0.1-0.2-0.1-0.4,0-0.6c0.1-0.3,0.4-0.6,0.8-0.6
		c0.1,0,0.2,0,0.3,0c0.2,0.1,2.2,0.7,4.7,0.7c4.1,0,7.3-1.3,9.8-3.9c3-3.3,3.8-7.7,3.6-10.5c-0.3-3.5-1.9-6.7-4.5-8.8
		c-2.1-1.8-4.9-2.7-8-2.7c-0.6,0-1.1,0-1.7,0.1c-3.2,0.3-5.8,1.4-7.7,3.2l-2.6,2.5l5.4-0.3c0.5,0,0.8,0.3,0.8,0.8
		c0,0.4-0.3,0.8-0.8,0.9c0,0-6.8,0.4-6.8,0.4c-0.2,0-0.4-0.1-0.6-0.2c-0.2-0.1-0.3-0.4-0.3-0.6l-0.1-6.9c0-0.4,0.3-0.8,0.8-0.8h0
		c0.5,0,0.8,0.4,0.8,0.8l0.1,4.4l2.2-2.1c2.1-2,4.9-3.2,8.5-3.5c0.6-0.1,1.3-0.1,1.9-0.1c3.4,0,6.6,1.1,9,3.1c2.9,2.4,4.7,6,5,9.9
		c0.3,3.3-0.6,8.1-4,11.7C41.3,39.5,37.5,41,33,41z"/>
</g>
</svg>
