<?xml version="1.0" encoding="UTF-8" standalone="no"?>
<svg width="48px" height="48px" viewBox="0 0 48 48" version="1.1" xmlns="http://www.w3.org/2000/svg" xmlns:xlink="http://www.w3.org/1999/xlink">
    <!-- Generator: Sketch 41.2 (35397) - http://www.bohemiancoding.com/sketch -->
    <title>Artboard</title>
    <desc>Created with Sketch.</desc>
    <defs></defs>
    <g id="Page-1" stroke="none" stroke-width="1" fill="none" fill-rule="evenodd">
        <g id="Artboard" fill="#2E7DE1">
            <g id="Group" transform="translate(1.000000, 1.000000)">
                <path d="M23.3589793,0.526041489 C10.7200621,0.526041489 0.480939204,10.7708781 0.480939204,23.4040816 C0.480939204,36.0372851 10.7257759,46.2821218 23.3589793,46.2821218 C35.9921828,46.2821218 46.2313057,36.0372851 46.2313057,23.4040816 C46.2313057,10.7708781 35.9921828,0.526041489 23.3589793,0.526041489 Z M23.3589793,45.0765108 C11.3885762,45.0765108 1.68083641,35.3744848 1.68083641,23.4040816 C1.68083641,11.4336785 11.3828624,1.7316525 23.3532656,1.7316525 C35.3236687,1.7316525 45.0314085,11.4336785 45.0314085,23.4040816 C45.0314085,35.3744848 35.3293825,45.0765108 23.3589793,45.0765108 Z" id="Shape"></path>
                <path d="M29.0727756,12.4735894 L17.1766518,12.4735894 C16.022465,12.4735894 15.0796886,13.4163658 15.0796886,14.5705526 L15.0796886,32.7575661 C15.0796886,33.9117529 16.022465,34.8545293 17.1766518,34.8545293 L29.0670618,34.8545293 C30.2212486,34.8545293 31.164025,33.9117529 31.164025,32.7575661 L31.164025,14.5762664 C31.1697388,13.4220796 30.2269624,12.4735894 29.0727756,12.4735894 Z M29.7698587,32.7632799 C29.7698587,33.1461042 29.4555999,33.460363 29.0727756,33.460363 L17.1766518,33.460363 C16.7938275,33.460363 16.4795687,33.1461042 16.4795687,32.7632799 L16.4795687,14.5762664 C16.4795687,14.1934421 16.7938275,13.8791833 17.1766518,13.8791833 L29.0670618,13.8791833 C29.4498861,13.8791833 29.7641449,14.1934421 29.7641449,14.5762664 L29.7641449,32.7632799 L29.7698587,32.7632799 Z" id="Shape"></path>
                <path d="M26.9700986,22.9698331 L26.9700986,22.9698331 L19.2793288,22.9698331 L19.2793288,22.9698331 C18.8907907,22.9698331 18.5822457,23.2840919 18.5822457,23.6669163 C18.5822457,24.0497406 18.8965045,24.3639994 19.2793288,24.3639994 L19.2793288,24.3639994 L26.9700986,24.3639994 L26.9700986,24.3639994 L26.9700986,24.3639994 C27.3586367,24.3639994 27.6671817,24.0497406 27.6671817,23.6669163 C27.6671817,23.2840919 27.3586367,22.9698331 26.9700986,22.9698331 Z" id="Shape"></path>
                <path d="M19.2793288,20.8671561 L19.2793288,20.8671561 L26.9758124,20.8671561 L26.9758124,20.8671561 L26.9758124,20.8671561 C27.3643505,20.8671561 27.6728955,20.5528973 27.6728955,20.170073 C27.6728955,19.7815348 27.3586367,19.4729898 26.9758124,19.4729898 L26.9758124,19.4729898 L19.2793288,19.4729898 L19.2793288,19.4729898 C18.8907907,19.4729898 18.5822457,19.7872486 18.5822457,20.170073 C18.5765319,20.5586111 18.8907907,20.8671561 19.2793288,20.8671561 Z" id="Shape"></path>
                <path d="M23.8217968,26.4666764 L23.8217968,26.4666764 L19.2793288,26.4666764 L19.2793288,26.4666764 C18.8907907,26.4666764 18.5822457,26.7809352 18.5822457,27.1637596 C18.5822457,27.5522977 18.8965045,27.8608427 19.2793288,27.8608427 L19.2793288,27.8608427 L23.8275106,27.8608427 L23.8275106,27.8608427 L23.8275106,27.8608427 C24.2160488,27.8608427 24.5245938,27.5465839 24.5245938,27.1637596 C24.5245938,26.7809352 24.210335,26.4666764 23.8217968,26.4666764 Z" id="Shape"></path>
            </g>
        </g>
    </g>
</svg>