<?xml version="1.0" encoding="utf-8"?>
<!-- Generator: Adobe Illustrator 21.1.0, SVG Export Plug-In . SVG Version: 6.00 Build 0)  -->
<svg version="1.1" id="Layer_1" xmlns="http://www.w3.org/2000/svg" xmlns:xlink="http://www.w3.org/1999/xlink" x="0px" y="0px"
	 viewBox="0 0 803.5 803.5" style="enable-background:new 0 0 803.5 803.5;" xml:space="preserve">
<style type="text/css">
	.st0{fill:#322B82;}
</style>
<g>
	<g>
		<path class="st0" d="M443.8,401.1L443.8,401.1h-29.6v-29.6c0,0,0-0.1,0-0.1c0-5.5-4.4-9.9-9.9-9.9c-5.5,0-9.9,4.4-9.9,9.9v29.6
			h-29.6c-5.5,0-9.9,4.4-9.9,9.9c0,5.5,4.4,9.9,9.9,9.9h0.1h29.5v29.6c0,5.5,4.4,9.9,9.9,9.9c5.5,0,9.9-4.4,9.9-9.9c0,0,0-0.1,0-0.1
			v-29.6h29.6h0.1c5.5,0,9.9-4.4,9.9-9.9C453.7,405.5,449.3,401.1,443.8,401.1"/>
		<path class="st0" d="M542.6,499.9c0,5.4-4.5,9.9-9.9,9.9H429h-4.9H275.8c-5.4,0-9.9-4.5-9.9-9.9V322.1c0-5.4,4.4-9.9,9.9-9.9
			l256.9,0c5.4,0,9.9,4.4,9.9,9.9V499.9z M532.7,292.4l-256.9,0c-16.3,0-29.6,13.3-29.6,29.7v177.8c0,16.3,13.4,29.6,29.6,29.6
			h148.2h4.9h103.7c16.3,0,29.6-13.3,29.6-29.6V322.1C562.4,305.8,549,292.4,532.7,292.4"/>
		<path class="st0" d="M404.3,252.9c21.8,0,39.5,17.7,39.5,39.5h19.8c0-32.7-26.5-59.3-59.3-59.3c-32.7,0-59.3,26.5-59.3,59.3h19.8
			C364.8,270.6,382.5,252.9,404.3,252.9"/>
	</g>
	<path class="st0" d="M401.8,11.9c-215.3,0-389.8,174.5-389.8,389.8c0,215.3,174.5,389.8,389.8,389.8s389.8-174.5,389.8-389.8
		C791.6,186.5,617.1,11.9,401.8,11.9z M401.8,771.1c-204,0-369.3-165.4-369.3-369.3c0-204,165.4-369.3,369.3-369.3
		s369.3,165.4,369.3,369.3C771.1,605.7,605.7,771.1,401.8,771.1z"/>
</g>
</svg>
