<?xml version="1.0" encoding="utf-8"?>
<!-- Generator: Adobe Illustrator 19.0.0, SVG Export Plug-In . SVG Version: 6.00 Build 0)  -->
<svg version="1.1" id="Layer_1" xmlns="http://www.w3.org/2000/svg" xmlns:xlink="http://www.w3.org/1999/xlink" x="0px" y="0px"
	 viewBox="0 0 48 48" style="enable-background:new 0 0 48 48;" xml:space="preserve">
<style type="text/css">
	.st0{fill:#2E008B;}
	.st1{fill:#FFFFFF;}
</style>
<path id="XMLID_9_" class="st0" d="M24,0C10.7,0,0,10.7,0,24c0,13.3,10.7,24,24,24s24-10.7,24-24C48,10.7,37.3,0,24,0z"/>
<g id="XMLID_2_">
	<path id="XMLID_13_" class="st1" d="M26.8,25.4L26.8,25.4h-2.1v-2.1c0,0,0,0,0,0c0-0.4-0.3-0.7-0.7-0.7c-0.4,0-0.7,0.3-0.7,0.7l0,0
		v2.1h-2.1c-0.4,0-0.7,0.3-0.7,0.7c0,0.4,0.3,0.7,0.7,0.7c0,0,0,0,0,0h2.1V29c0,0.4,0.3,0.7,0.7,0.7c0.4,0,0.7-0.3,0.7-0.7
		c0,0,0,0,0,0v-2.1h2.1c0,0,0,0,0,0c0.4,0,0.7-0.3,0.7-0.7C27.6,25.7,27.2,25.4,26.8,25.4z"/>
	<path id="XMLID_7_" class="st1" d="M33.3,17.6l-18.5,0c-1.2,0-2.1,1-2.1,2.1v12.8c0,1.2,1,2.1,2.1,2.1h10.7h0.4h7.5
		c1.2,0,2.1-1,2.1-2.1V19.7C35.4,18.5,34.4,17.6,33.3,17.6z M34,32.5c0,0.4-0.3,0.7-0.7,0.7h-7.5h-0.4H14.7c-0.4,0-0.7-0.3-0.7-0.7
		V19.7c0-0.4,0.3-0.7,0.7-0.7l18.5,0c0.4,0,0.7,0.3,0.7,0.7V32.5z"/>
	<path id="XMLID_3_" class="st1" d="M24,14.7c1.6,0,2.8,1.3,2.8,2.8h1.4c0-2.4-1.9-4.3-4.3-4.3s-4.3,1.9-4.3,4.3h1.4
		C21.2,16,22.4,14.7,24,14.7z"/>
</g>
</svg>
