<?xml version="1.0" encoding="utf-8"?>
<!-- Generator: Adobe Illustrator 21.1.0, SVG Export Plug-In . SVG Version: 6.00 Build 0)  -->
<svg version="1.1" id="Layer_1" xmlns="http://www.w3.org/2000/svg" xmlns:xlink="http://www.w3.org/1999/xlink" x="0px" y="0px"
	 viewBox="0 0 803.5 803.5" style="enable-background:new 0 0 803.5 803.5;" xml:space="preserve">
<style type="text/css">
	.st0{fill:#51B6D1;}
</style>
<g>
	<path class="st0" d="M527.2,312.3c-10.2,28.3-21.9,71.8-30.5,103.6l-3.9,14.6c-7.6,27.8-13.8,115.8-14,119.5c0,0.3,0,0.5,0,0.8
		c0,7.9-7,14.4-15.6,14.4c-8.6,0-15.6-6.4-15.6-14.4v-71.7c0-20.8-17.5-37.7-39-37.7c-21.4,0-38.8,16.8-39,37.4c0,0.1,0,0.2,0,0.3
		v71.7c0,7.9-7,14.4-15.6,14.4c-8.6,0-15.6-6.4-15.6-14.4c0-0.3,0-0.6,0-0.9c-0.3-3.7-7.4-90.7-13.9-118.5
		c-4.6-19.6-16.3-45.5-27.7-70.4c-8.3-18.2-16.1-35.3-20.3-48.3c-6.6-20.3-1.8-40,13.6-55.4c12.1-12.2,28.2-18.9,45.3-18.9
		c17.1,0,33.2,6.7,45.4,18.9c2.5,2.5,5,5.7,7.4,9.4L374.4,288c-3.5,5.4-1.8,12.7,3.6,16.1c1.9,1.2,4.1,1.8,6.2,1.8
		c3.9,0,7.7-1.9,9.9-5.4l17.4-27.5c0.1-0.1,0.1-0.3,0.2-0.4c0-0.1,0.1-0.1,0.2-0.2c2.6-4.8,6.2-10.8,10.6-15.2
		c12.1-12.2,28.2-18.9,45.4-18.9c17.1,0,33.2,6.7,45.3,18.9C529,273.1,534.1,293.1,527.2,312.3 M529.7,240.7
		c-16.5-16.6-38.5-25.7-61.9-25.7c-23.4,0-45.4,9.1-61.9,25.7c-1.6,1.6-3.1,3.2-4.4,5c-1.5-1.8-3-3.4-4.5-5
		c-16.5-16.6-38.5-25.7-61.9-25.7h0c-23.4,0-45.4,9.1-61.9,25.7c-21.6,21.6-28.6,50.5-19.2,79.2c4.6,14.2,12.7,31.9,21.3,50.7
		c10.9,23.9,22.2,48.7,26.2,66c5.9,25.2,12.8,108,13.3,114.7c0.3,20.6,17.7,37.2,39,37.2c21.5,0,39-16.9,39-37.7v-71.4
		c0-0.1,0-0.2,0-0.3c0-7.9,7-14.4,15.6-14.4c4.3,0,8.3,1.6,11.2,4.4c2.8,2.7,4.4,6.2,4.4,10v71.7c0,20.8,17.5,37.7,39,37.7
		c21.3,0,38.7-16.7,39-37.3c0.4-6.2,6.5-89.9,13.3-114.7l4-14.7c8.4-31.4,20-74.4,29.9-101.7C559.1,292.6,551.9,262.9,529.7,240.7"
		/>
	<path class="st0" d="M401.8,11.9c-215.3,0-389.8,174.5-389.8,389.8c0,215.3,174.5,389.8,389.8,389.8s389.8-174.5,389.8-389.8
		C791.6,186.5,617.1,11.9,401.8,11.9z M401.8,771.1c-204,0-369.3-165.4-369.3-369.3c0-204,165.4-369.3,369.3-369.3
		s369.3,165.4,369.3,369.3C771.1,605.7,605.7,771.1,401.8,771.1z"/>
</g>
</svg>
