<?xml version="1.0" encoding="utf-8"?>
<!-- Generator: Adobe Illustrator 19.0.0, SVG Export Plug-In . SVG Version: 6.00 Build 0)  -->
<svg version="1.1" id="Layer_1" xmlns="http://www.w3.org/2000/svg" xmlns:xlink="http://www.w3.org/1999/xlink" x="0px" y="0px"
	 viewBox="0 0 48 48" style="enable-background:new 0 0 48 48;" xml:space="preserve">
<style type="text/css">
	.st0{fill:#59C0E8;}
	.st1{fill:#FFFFFF;}
</style>
<path id="XMLID_9_" class="st0" d="M24,0C10.7,0,0,10.7,0,24c0,13.3,10.7,24,24,24s24-10.7,24-24C48,10.7,37.3,0,24,0z"/>
<path id="XMLID_4_" class="st1" d="M32.9,12.9c-1.1-1.1-2.7-1.8-4.3-1.8h0c-1.6,0-3.1,0.6-4.3,1.8c-0.1,0.1-0.2,0.2-0.3,0.3
	c-0.1-0.1-0.2-0.2-0.3-0.3c-1.1-1.1-2.7-1.8-4.3-1.8h0c-1.6,0-3.1,0.6-4.3,1.8c-1.5,1.5-2,3.5-1.3,5.5c0.3,1,0.9,2.2,1.5,3.5
	c0.8,1.7,1.5,3.4,1.8,4.6c0.4,1.7,0.9,7.5,0.9,7.9c0,1.4,1.2,2.6,2.7,2.6c1.5,0,2.7-1.2,2.7-2.6v-4.9c0,0,0,0,0,0c0-0.5,0.5-1,1.1-1
	c0.3,0,0.6,0.1,0.8,0.3c0.2,0.2,0.3,0.4,0.3,0.7v5c0,1.4,1.2,2.6,2.7,2.6c1.5,0,2.7-1.2,2.7-2.6c0-0.4,0.5-6.2,0.9-7.9l0.3-1
	c0.6-2.2,1.4-5.1,2.1-7C34.9,16.4,34.4,14.4,32.9,12.9z M32.7,17.8c-0.7,2-1.5,5-2.1,7.2l-0.3,1c-0.5,1.9-1,8-1,8.3c0,0,0,0,0,0.1
	c0,0.5-0.5,1-1.1,1c-0.6,0-1.1-0.4-1.1-1v-5c0-1.4-1.2-2.6-2.7-2.6c-1.5,0-2.7,1.2-2.7,2.6c0,0,0,0,0,0v5c0,0.5-0.5,1-1.1,1
	c-0.6,0-1.1-0.4-1.1-1c0,0,0,0,0-0.1c0-0.3-0.5-6.3-1-8.2c-0.3-1.4-1.1-3.1-1.9-4.9c-0.6-1.3-1.1-2.4-1.4-3.3
	c-0.5-1.4-0.1-2.8,0.9-3.8c0.8-0.8,2-1.3,3.1-1.3c1.2,0,2.3,0.5,3.1,1.3c0.2,0.2,0.3,0.4,0.5,0.7l-0.9,1.5c-0.2,0.4-0.1,0.9,0.3,1.1
	c0.1,0.1,0.3,0.1,0.4,0.1c0.3,0,0.5-0.1,0.7-0.4l1.2-1.9c0,0,0,0,0,0c0,0,0,0,0,0c0.2-0.3,0.4-0.8,0.7-1.1c0.8-0.8,2-1.3,3.1-1.3
	c1.2,0,2.3,0.5,3.1,1.3C32.8,15.1,33.2,16.5,32.7,17.8z"/>
</svg>
