<?xml version="1.0" encoding="utf-8"?>
<!-- Generator: Adobe Illustrator 19.0.0, SVG Export Plug-In . SVG Version: 6.00 Build 0)  -->
<svg version="1.1" id="Layer_1" xmlns="http://www.w3.org/2000/svg" xmlns:xlink="http://www.w3.org/1999/xlink" x="0px" y="0px"
	 viewBox="0 0 48 48" style="enable-background:new 0 0 48 48;" xml:space="preserve">
<style type="text/css">
	.st0{fill:#C4E76A;}
	.st1{fill:#FFFFFF;}
</style>
<path id="XMLID_9_" class="st0" d="M24,0C10.7,0,0,10.7,0,24c0,13.3,10.7,24,24,24s24-10.7,24-24C48,10.7,37.3,0,24,0z"/>
<path id="XMLID_58_" class="st1" d="M37.6,18.4c-0.1-2.6-1.4-4.6-3-4.6h-0.2v1.4h0.2c0.7,0,1.6,1.4,1.6,3.7v0.2v4.8
	c-1.1-1.2-2.6-2-4.4-2c-2.4,0-4.4,1.4-5.3,3.5c-0.8-0.7-1.6-1.1-2.5-1.2c-1.3,0-2.4,0.6-3.1,1.2c-0.9-2.1-3-3.6-5.4-3.6
	c-1.8,0-3.3,0.8-4.4,2v-5v-0.2c0-2.3,1-3.7,1.6-3.7h0.2v-1.4h-0.2c-1.7,0-3,2.1-3,4.8h0v0.2v0.2v9.1h0c0.1,3.1,2.7,5.6,5.8,5.6
	c3.2,0,5.8-2.6,5.8-5.8c0-0.2,0-0.5,0-0.7c0.5-0.6,1.5-1.4,2.6-1.4c0.7,0,1.5,0.5,2.2,1.4c0,0.2,0,0.5,0,0.7c0,3.2,2.6,5.8,5.8,5.8
	c3.1,0,5.7-2.5,5.8-5.6h0v-8.9v-0.2L37.6,18.4L37.6,18.4z M31.8,32.1c-2.4,0-4.4-2-4.4-4.4c0-2.4,2-4.4,4.4-4.4c2.4,0,4.4,2,4.4,4.4
	C36.2,30.1,34.2,32.1,31.8,32.1z M15.4,32.1c-2.4,0-4.4-2-4.4-4.4c0-2.4,2-4.4,4.4-4.4c2.4,0,4.4,2,4.4,4.4
	C19.9,30.1,17.9,32.1,15.4,32.1z"/>
</svg>
