<?xml version="1.0" encoding="utf-8"?>
<!-- Generator: Adobe Illustrator 21.1.0, SVG Export Plug-In . SVG Version: 6.00 Build 0)  -->
<svg version="1.1" id="Layer_1" xmlns="http://www.w3.org/2000/svg" xmlns:xlink="http://www.w3.org/1999/xlink" x="0px" y="0px"
	 viewBox="0 0 803.5 803.5" style="enable-background:new 0 0 803.5 803.5;" xml:space="preserve">
<style type="text/css">
	.st0{fill:#E43312;}
	.st1{fill:#FFFFFF;}
</style>
<path class="st0" d="M803.5,401.8c0,221.9-179.9,401.8-401.8,401.8C179.9,803.5,0,623.6,0,401.8C0,179.9,179.9,0,401.8,0
	C623.6,0,803.5,179.9,803.5,401.8"/>
<path class="st1" d="M401.8,569.7c-64.2,0-116.5-49.6-116.5-110.6c0-68.7,86.1-198.6,116.5-242.3c30.4,43.7,116.5,173.6,116.5,242.3
	C518.2,520.1,466,569.7,401.8,569.7 M412.2,186.8c-2.4-3.3-6.3-5.3-10.4-5.3c-4.1,0-8,2-10.4,5.3c-5.4,7.3-131.9,180.9-131.9,272.4
	c0,75.2,63.9,136.5,142.3,136.5c78.5,0,142.3-61.2,142.3-136.5C544.1,367.7,417.6,194.1,412.2,186.8"/>
</svg>
