<?xml version="1.0" encoding="UTF-8" standalone="no"?>
<svg width="48px" height="48px" viewBox="0 0 48 48" version="1.1" xmlns="http://www.w3.org/2000/svg" xmlns:xlink="http://www.w3.org/1999/xlink">
    <!-- Generator: Sketch 41.2 (35397) - http://www.bohemiancoding.com/sketch -->
    <title>Artboard</title>
    <desc>Created with Sketch.</desc>
    <defs></defs>
    <g id="Page-1" stroke="none" stroke-width="1" fill="none" fill-rule="evenodd">
        <g id="Artboard" fill="#B1B3B2">
            <g id="Page-1" transform="translate(2.000000, 0.000000)">
                <g id="Group-3" transform="translate(0.000000, 0.168950)">
                    <path d="M22.62418,44.9429296 C10.78654,44.9429296 1.19002,35.3180161 1.19002,23.4453518 C1.19002,11.5717647 10.78654,1.94685121 22.62418,1.94685121 C34.46182,1.94685121 44.05834,11.5717647 44.05834,23.4453518 C44.05834,35.3180161 34.46182,44.9429296 22.62418,44.9429296 M22.62418,0.753771626 C10.12874,0.753771626 -0.00046,10.9129412 -0.00046,23.4453518 C-0.00046,35.9768397 10.12874,46.1360092 22.62418,46.1360092 C35.11962,46.1360092 45.24882,35.9768397 45.24882,23.4453518 C45.24882,10.9129412 35.11962,0.753771626 22.62418,0.753771626" id="Fill-1"></path>
                </g>
                <path d="M22.390868,33.8458131 C18.774348,33.8458131 15.832188,31.0444291 15.832188,27.5999077 C15.832188,23.7189389 20.681508,16.3805306 22.390868,13.9140946 C24.100228,16.3805306 28.949548,23.7189389 28.949548,27.5999077 C28.949548,31.0444291 26.007388,33.8458131 22.390868,33.8458131 M22.978748,12.2172088 C22.841668,12.0298962 22.622708,11.9191696 22.390868,11.9191696 C22.159028,11.9191696 21.940988,12.0298962 21.802988,12.2172088 C21.500308,12.6324337 14.374908,22.4354325 14.374908,27.5999077 C14.374908,31.8499654 17.970268,35.3074048 22.390868,35.3074048 C26.811468,35.3074048 30.406828,31.8499654 30.406828,27.5999077 C30.406828,22.4354325 23.281428,12.6324337 22.978748,12.2172088" id="Fill-4"></path>
            </g>
        </g>
    </g>
</svg>