<?xml version="1.0" encoding="utf-8"?>
<!-- Generator: Adobe Illustrator 21.1.0, SVG Export Plug-In . SVG Version: 6.00 Build 0)  -->
<svg version="1.1" id="Layer_1" xmlns="http://www.w3.org/2000/svg" xmlns:xlink="http://www.w3.org/1999/xlink" x="0px" y="0px"
	 viewBox="0 0 803.5 803.5" style="enable-background:new 0 0 803.5 803.5;" xml:space="preserve">
<style type="text/css">
	.st0{fill:#EB4023;}
</style>
<g>
	<path class="st0" d="M401.8,555.4c-54.4,0-98.7-42.1-98.7-93.8c0-58.3,73-168.4,98.7-205.4c25.7,37,98.7,147.2,98.7,205.4
		C500.5,513.3,456.2,555.4,401.8,555.4 M410.6,230.7c-2.1-2.8-5.4-4.5-8.9-4.5c-3.5,0-6.8,1.7-8.9,4.5
		c-4.6,6.2-111.8,153.4-111.8,230.9c0,63.8,54.1,115.7,120.7,115.7c66.5,0,120.7-51.9,120.7-115.7
		C522.4,384.1,415.2,236.9,410.6,230.7"/>
	<path class="st0" d="M401.8,11.9c-215.3,0-389.8,174.5-389.8,389.8c0,215.3,174.5,389.8,389.8,389.8s389.8-174.5,389.8-389.8
		C791.6,186.5,617.1,11.9,401.8,11.9z M401.8,771.1c-204,0-369.3-165.4-369.3-369.3c0-204,165.4-369.3,369.3-369.3
		s369.3,165.4,369.3,369.3C771.1,605.7,605.7,771.1,401.8,771.1z"/>
</g>
</svg>
