<?xml version="1.0" encoding="utf-8"?>
<!-- Generator: Adobe Illustrator 21.1.0, SVG Export Plug-In . SVG Version: 6.00 Build 0)  -->
<svg version="1.1" id="Layer_1" xmlns="http://www.w3.org/2000/svg" xmlns:xlink="http://www.w3.org/1999/xlink" x="0px" y="0px"
	 viewBox="0 0 803.5 803.5" style="enable-background:new 0 0 803.5 803.5;" xml:space="preserve">
<style type="text/css">
	.st0{fill:#F74F18;}
	.st1{fill:#FFFFFF;}
</style>
<g>
	<path class="st0" d="M799,404c0,220.6-178.9,399.5-399.5,399.5C178.9,803.5,0,624.7,0,404S178.9,4.5,399.5,4.5
		C620.1,4.5,799,183.4,799,404"/>
	<path class="st1" d="M613.9,398.8H466.3l-25-62.5c0,0-0.1-0.1-0.1-0.1c-1.4-3.5-4.1-6.4-7.9-7.9c-7.3-2.9-15.6,0.6-18.6,8
		l-28.6,71.5l-15.3,38.3l-15.3-38.3l0,0c-2.1-5.3-7.2-9-13.3-9H185.1c-7.9,0-14.3,6.4-14.3,14.3c0,7.9,6.4,14.3,14.3,14.3h147.5
		l25,62.5c0,0,0,0,0,0.1c1.4,3.5,4.2,6.4,7.9,7.9c1.7,0.7,3.5,1,5.3,1c5.7,0,11-3.4,13.3-9l28.6-71.5l15.3-38.3l15.1,37.8
		c1.9,6.1,7.2,11.4,13.5,11.4l157.2-1.9c7.9,0,14.3-6.4,14.3-14.3C628.2,405.2,621.8,398.8,613.9,398.8"/>
	<path class="st1" d="M187.7,384.5c1,0,2-0.1,3.1-0.3c7.7-1.7,12.6-9.3,10.9-17c-7.1-32.6,3-66.1,26.9-89.7
		c39.1-38.3,102.6-38.3,141.7,0c6.5,6.4,12.1,13.8,16.7,22c2.5,4.5,7.3,7.3,12.5,7.3c5.2,0,9.9-2.8,12.4-7.3
		c4.6-8.2,10.2-15.6,16.7-22c39.1-38.3,102.6-38.3,141.7,0c24,23.5,34,57.1,26.9,89.7c-1.7,7.7,3.2,15.3,10.9,17
		c7.7,1.7,15.3-3.2,17-10.9c9.2-42.3-3.8-85.7-34.8-116.2c-50.1-49.2-131.6-49.2-181.7,0c-3.2,3.2-6.3,6.5-9.2,10.1
		c-2.9-3.5-6-6.9-9.2-10.1c-50.1-49.2-131.6-49.2-181.7,0c-31,30.4-44,73.9-34.8,116.2C175.2,380,181.1,384.5,187.7,384.5"/>
	<path class="st1" d="M536.7,440.5L401.6,585.8l-146-134.5c-5.8-5.4-14.9-5-20.2,0.8c-5.3,5.8-5,14.8,0.8,20.2l156.4,144.1
		c2.9,2.7,6.6,3.9,10.2,3.8c3.6-0.1,7.2-1.7,9.9-4.6l144.8-155.8c5.4-5.8,5-14.8-0.7-20.2C551.2,434.3,542.1,434.7,536.7,440.5"/>
</g>
</svg>
