<?xml version="1.0" encoding="utf-8"?>
<!-- Generator: Adobe Illustrator 21.1.0, SVG Export Plug-In . SVG Version: 6.00 Build 0)  -->
<svg version="1.1" id="Layer_1" xmlns="http://www.w3.org/2000/svg" xmlns:xlink="http://www.w3.org/1999/xlink" x="0px" y="0px"
	 viewBox="0 0 803.5 803.5" style="enable-background:new 0 0 803.5 803.5;" xml:space="preserve">
<style type="text/css">
	.st0{fill:#F74F18;}
</style>
<g>
	<path class="st0" d="M591.5,396.6H466.1l-21.2-53.1c0,0,0,0-0.1-0.1c-1.2-2.9-3.5-5.4-6.7-6.7c-6.2-2.5-13.3,0.5-15.8,6.8
		L398,404.2l-13,32.5l-13-32.5l0,0c-1.8-4.5-6.2-7.7-11.3-7.7H227.1c-6.7,0-12.1,5.4-12.1,12.2c0,6.7,5.4,12.1,12.1,12.1h125.4
		l21.3,53.1c0,0,0,0,0,0.1c1.2,3,3.5,5.4,6.7,6.7c1.5,0.6,3,0.9,4.5,0.9c4.8,0,9.4-2.9,11.3-7.6l24.3-60.7l13-32.6l12.8,32.1
		c1.6,5.2,6.1,9.7,11.4,9.7l133.6-1.6c6.7,0,12.2-5.4,12.2-12.1C603.7,402,598.2,396.6,591.5,396.6"/>
	<path class="st0" d="M229.3,384.4c0.9,0,1.7-0.1,2.6-0.3c6.5-1.4,10.7-7.9,9.3-14.5c-6.1-27.7,2.5-56.2,22.9-76.2
		c33.2-32.6,87.2-32.6,120.4,0c5.5,5.4,10.3,11.7,14.2,18.7c2.2,3.8,6.2,6.2,10.6,6.2c4.4,0,8.4-2.4,10.6-6.2
		c3.9-7,8.7-13.2,14.2-18.7c33.2-32.6,87.2-32.6,120.4,0c20.4,20,28.9,48.5,22.9,76.2c-1.4,6.6,2.7,13,9.3,14.5
		c6.5,1.4,13-2.7,14.5-9.3c7.9-36-3.2-72.9-29.6-98.7c-42.6-41.8-111.9-41.8-154.5,0c-2.8,2.7-5.4,5.5-7.8,8.5
		c-2.5-3-5.1-5.9-7.8-8.5c-42.6-41.8-111.9-41.8-154.5,0c-26.4,25.9-37.4,62.8-29.6,98.7C218.7,380.5,223.7,384.4,229.3,384.4"/>
	<path class="st0" d="M526,432L411.1,555.5L287,441.2c-4.9-4.6-12.6-4.2-17.2,0.7c-4.5,4.9-4.2,12.6,0.7,17.2l133,122.5
		c2.5,2.3,5.6,3.3,8.7,3.2c3.1-0.1,6.1-1.4,8.4-3.9l123.1-132.4c4.6-4.9,4.3-12.6-0.6-17.2C538.2,426.8,530.5,427,526,432"/>
</g>
<path class="st0" d="M401.8,10.3c-215.3,0-389.8,174.5-389.8,389.8C11.9,615.4,186.5,790,401.8,790s389.8-174.5,389.8-389.8
	C791.6,184.8,617.1,10.3,401.8,10.3z M401.8,769.5c-204,0-369.3-165.4-369.3-369.3c0-204,165.4-369.3,369.3-369.3
	s369.3,165.4,369.3,369.3C771.1,604.1,605.7,769.5,401.8,769.5z"/>
</svg>
