<?xml version="1.0" encoding="UTF-8" standalone="no"?>
<svg width="28px" height="45px" viewBox="0 0 28 45" version="1.1" xmlns="http://www.w3.org/2000/svg" xmlns:xlink="http://www.w3.org/1999/xlink">
    <!-- Generator: Sketch 41.2 (35397) - http://www.bohemiancoding.com/sketch -->
    <title>ubicacion-azul</title>
    <desc>Created with Sketch.</desc>
    <defs></defs>
    <g id="Page-1" stroke="none" stroke-width="1" fill="none" fill-rule="evenodd">
        <g id="ubicacion-azul" fill="#07A9F5">
            <g id="Page-1">
                <g id="Artboard">
                    <g id="Group">
                        <path d="M13.9801418,8.46238938 C10.9021277,8.46238938 8.39007092,10.9811947 8.39007092,14.0674779 C8.39007092,17.1537611 10.9021277,19.6725664 13.9801418,19.6725664 C17.058156,19.6725664 19.5702128,17.1537611 19.5702128,14.0674779 C19.5702128,10.9811947 17.058156,8.46238938 13.9801418,8.46238938 Z M13.9801418,16.875 C12.4411348,16.875 11.1900709,15.6205752 11.1900709,14.0774336 C11.1900709,12.534292 12.4411348,11.2798673 13.9801418,11.2798673 C15.5191489,11.2798673 16.7702128,12.534292 16.7702128,14.0774336 C16.7702128,15.6205752 15.5191489,16.875 13.9801418,16.875 Z" id="Shape"></path>
                        <path d="M13.9801418,0.0597345133 C6.2751773,0.0597345133 0.00992907801,6.34181416 0.00992907801,14.0674779 C0.00992907801,24.8794248 12.3021277,43.4867257 12.8184397,44.2732301 C13.0765957,44.6615044 13.5134752,44.9004425 13.9801418,44.9004425 C14.4468085,44.9004425 14.8836879,44.6615044 15.141844,44.2732301 C15.6680851,43.4867257 27.9503546,24.8794248 27.9503546,14.0674779 C27.9503546,6.34181416 21.6851064,0.0597345133 13.9801418,0.0597345133 Z M13.9801418,40.8882743 C10.9021277,35.960177 2.8,22.1814159 2.8,14.0674779 C2.8,7.88495575 7.8141844,2.85730088 13.9801418,2.85730088 C20.1460993,2.85730088 25.1602837,7.88495575 25.1602837,14.0674779 C25.1602837,22.1814159 17.048227,35.960177 13.9801418,40.8882743 Z" id="Shape"></path>
                    </g>
                </g>
            </g>
        </g>
    </g>
</svg>