<?xml version="1.0" encoding="UTF-8" standalone="no"?>
<svg width="49px" height="42px" viewBox="0 0 49 42" version="1.1" xmlns="http://www.w3.org/2000/svg" xmlns:xlink="http://www.w3.org/1999/xlink">
    <!-- Generator: Sketch 41.2 (35397) - http://www.bohemiancoding.com/sketch -->
    <title>beneficiariosAtendidos_azul</title>
    <desc>Created with Sketch.</desc>
    <defs></defs>
    <g id="Page-1" stroke="none" stroke-width="1" fill="none" fill-rule="evenodd">
        <g id="beneficiariosAtendidos_azul" fill="#081378">
            <g id="Group">
                <g transform="translate(12.000000, 8.000000)" id="Shape">
                    <path d="M12,11.8 C15.1,11.8 17.7,9.2 17.7,6.1 C17.7,3 15.1,0.4 12,0.4 C8.9,0.4 6.3,3 6.3,6.1 C6.3,9.3 8.9,11.8 12,11.8 Z M12,2.5 C14,2.5 15.6,4.1 15.6,6.1 C15.6,8.1 14,9.8 12,9.8 C10,9.8 8.4,8.2 8.4,6.2 C8.4,4.2 10,2.5 12,2.5 Z"></path>
                    <path d="M12,12.9 C5.7,12.9 0.6,18 0.6,24.3 C0.6,24.9 1.1,25.3 1.6,25.3 L5.7,25.3 L5.7,32.5 C5.7,33.1 6.2,33.5 6.7,33.5 L17.1,33.5 C17.7,33.5 18.1,33 18.1,32.5 L18.1,25.3 L22.2,25.3 C22.8,25.3 23.2,24.8 23.2,24.3 C23.4,18 18.3,12.9 12,12.9 Z M17.2,23.2 C16.6,23.2 16.2,23.7 16.2,24.2 L16.2,31.4 L7.9,31.4 L7.9,24.2 C7.9,23.6 7.4,23.2 6.9,23.2 L2.8,23.2 C3.3,18.5 7.3,14.9 12.1,14.9 C16.9,14.9 20.8,18.5 21.4,23.2 L17.2,23.2 Z"></path>
                </g>
                <g transform="translate(33.000000, 0.000000)" id="Shape">
                    <path d="M7.7,7.7 C9.7,7.7 11.4,6.1 11.4,4 C11.4,2 9.8,0.3 7.7,0.3 C5.7,0.3 4,1.9 4,4 C4,6.1 5.7,7.7 7.7,7.7 Z M7.7,1.7 C9,1.7 10,2.7 10,4 C10,5.3 9,6.3 7.7,6.3 C6.4,6.3 5.4,5.3 5.4,4 C5.4,2.7 6.4,1.7 7.7,1.7 Z"></path>
                    <path d="M7.7,8.4 C3.7,8.4 0.4,11.7 0.4,15.7 C0.4,16.1 0.7,16.4 1.1,16.4 L3.8,16.4 L3.8,21 C3.8,21.4 4.1,21.7 4.5,21.7 L11,21.7 C11.4,21.7 11.7,21.4 11.7,21 L11.7,16.3 L14.4,16.3 C14.8,16.3 15.1,16 15.1,15.6 C15,11.7 11.7,8.4 7.7,8.4 Z M11,15 C10.6,15 10.3,15.3 10.3,15.7 L10.3,20.4 L5,20.4 L5,15.7 C5,15.3 4.7,15 4.3,15 L1.7,15 C2,12 4.6,9.7 7.7,9.7 C10.8,9.7 13.3,12 13.7,15 L11,15 Z"></path>
                </g>
                <g id="Shape">
                    <path d="M7.3,7.7 C9.3,7.7 11,6.1 11,4 C11,2 9.4,0.3 7.3,0.3 C5.3,0.3 3.6,1.9 3.6,4 C3.7,6.1 5.3,7.7 7.3,7.7 Z M7.3,1.7 C8.6,1.7 9.6,2.7 9.6,4 C9.6,5.3 8.6,6.3 7.3,6.3 C6,6.3 5,5.4 5,4.1 C5,2.8 6,1.7 7.3,1.7 Z"></path>
                    <path d="M7.3,8.4 C3.3,8.4 0,11.7 0,15.7 C0,16.1 0.3,16.4 0.7,16.4 L3.4,16.4 L3.4,21 C3.4,21.4 3.7,21.7 4.1,21.7 L10.8,21.7 C11.2,21.7 11.5,21.4 11.5,21 L11.5,16.3 L14,16.3 C14.4,16.3 14.7,16 14.7,15.6 C14.6,11.7 11.4,8.4 7.3,8.4 Z M10.6,15 C10.2,15 9.9,15.3 9.9,15.7 L9.9,20.4 L4.7,20.4 L4.7,15.7 C4.7,15.3 4.4,15 4,15 L1.4,15 C1.7,12 4.3,9.7 7.4,9.7 C10.5,9.7 13,12 13.4,15 L10.6,15 Z"></path>
                </g>
            </g>
        </g>
    </g>
</svg>