<?xml version="1.0" encoding="UTF-8" standalone="no"?>
<svg width="48px" height="48px" viewBox="0 0 48 48" version="1.1" xmlns="http://www.w3.org/2000/svg" xmlns:xlink="http://www.w3.org/1999/xlink">
    <!-- Generator: Sketch 41.2 (35397) - http://www.bohemiancoding.com/sketch -->
    <title>Artboard</title>
    <desc>Created with Sketch.</desc>
    <defs></defs>
    <g id="Page-1" stroke="none" stroke-width="1" fill="none" fill-rule="evenodd">
        <g id="Artboard" fill="#B1B3B2">
            <g id="Page-1" transform="translate(1.000000, 0.000000)">
                <path d="M20.251132,18.4569319 L24.997412,18.4569319 L24.997412,20.8366321 L23.415012,20.8366321 C22.978012,20.8366321 22.623812,21.19188 22.623812,21.630173 C22.623812,22.068466 22.978012,22.423714 23.415012,22.423714 L24.997412,22.423714 L24.997412,23.2172549 L23.415012,23.2172549 C22.978012,23.2172549 22.623812,23.5725029 22.623812,24.0107958 C22.623812,24.4490888 22.978012,24.8043368 23.415012,24.8043368 L24.997412,24.8043368 L24.997412,25.596955 L23.415012,25.596955 C22.978012,25.596955 22.623812,25.952203 22.623812,26.390496 C22.623812,26.8287889 22.978012,27.1840369 23.415012,27.1840369 L24.997412,27.1840369 L24.997412,28.7711188 L20.251132,28.7711188 L20.251132,18.4569319 Z M22.623812,16.4730796 C22.915452,16.4730796 23.168452,16.6345559 23.305532,16.8698501 L21.943012,16.8698501 C22.080092,16.6345559 22.332172,16.4730796 22.623812,16.4730796 L22.623812,16.4730796 Z M27.370092,28.7711188 L26.579812,28.7711188 L26.579812,17.663391 C26.579812,17.225098 26.225612,16.8698501 25.788612,16.8698501 L24.961532,16.8698501 C24.817092,16.0126413 24.215412,15.3104498 23.415012,15.0253287 L23.415012,11.7136794 C23.415012,11.2753864 23.060812,10.9201384 22.623812,10.9201384 C22.187732,10.9201384 21.833532,11.2753864 21.833532,11.7136794 L21.833532,15.0253287 C21.033132,15.3104498 20.431452,16.0126413 20.287012,16.8698501 L19.459932,16.8698501 C19.022932,16.8698501 18.668732,17.225098 18.668732,17.663391 L18.668732,28.7711188 L17.878452,28.7711188 C17.441452,28.7711188 17.087252,29.1263668 17.087252,29.563737 C17.087252,30.00203 17.441452,30.357278 17.878452,30.357278 L21.833532,30.357278 L21.833532,34.7208304 L19.459932,34.7208304 C19.022932,34.7208304 18.668732,35.0760784 18.668732,35.5143714 C18.668732,35.9526644 19.022932,36.3079123 19.459932,36.3079123 L25.788612,36.3079123 C26.225612,36.3079123 26.579812,35.9526644 26.579812,35.5143714 C26.579812,35.0760784 26.225612,34.7208304 25.788612,34.7208304 L23.415012,34.7208304 L23.415012,30.357278 L27.370092,30.357278 C27.807092,30.357278 28.161292,30.00203 28.161292,29.563737 C28.161292,29.1263668 27.807092,28.7711188 27.370092,28.7711188 L27.370092,28.7711188 Z" id="Fill-1"></path>
                <g id="Group-5" transform="translate(0.000000, 0.168950)">
                    <path d="M22.62418,44.9429296 C10.78654,44.9429296 1.19002,35.3180161 1.19002,23.4453518 C1.19002,11.5717647 10.78654,1.94685121 22.62418,1.94685121 C34.46182,1.94685121 44.05834,11.5717647 44.05834,23.4453518 C44.05834,35.3180161 34.46182,44.9429296 22.62418,44.9429296 M22.62418,0.753771626 C10.12874,0.753771626 -0.00046,10.9129412 -0.00046,23.4453518 C-0.00046,35.9768397 10.12874,46.1360092 22.62418,46.1360092 C35.11962,46.1360092 45.24882,35.9768397 45.24882,23.4453518 C45.24882,10.9129412 35.11962,0.753771626 22.62418,0.753771626" id="Fill-3"></path>
                </g>
            </g>
        </g>
    </g>
</svg>