<?xml version="1.0" encoding="utf-8"?>
<!-- Generator: Adobe Illustrator 19.0.0, SVG Export Plug-In . SVG Version: 6.00 Build 0)  -->
<svg version="1.1" id="Layer_1" xmlns="http://www.w3.org/2000/svg" xmlns:xlink="http://www.w3.org/1999/xlink" x="0px" y="0px"
	 viewBox="0 0 48 48" style="enable-background:new 0 0 48 48;" xml:space="preserve">
<style type="text/css">
	.st0{fill:#2E7DE1;}
</style>
<path id="XMLID_9_" class="st0" d="M24,0C10.7,0,0,10.7,0,24c0,13.3,10.7,24,24,24s24-10.7,24-24C48,10.7,37.3,0,24,0z M24,46.7
	C11.4,46.7,1.3,36.6,1.3,24C1.3,11.4,11.4,1.3,24,1.3S46.7,11.4,46.7,24C46.7,36.6,36.6,46.7,24,46.7z"/>
<path id="XMLID_2_" class="st0" d="M29.2,29.6h-0.9v-12c0-0.5-0.4-0.9-0.9-0.9h-0.9c-0.2-0.9-0.8-1.7-1.7-2v-3.6
	c0-0.5-0.4-0.9-0.9-0.9c-0.5,0-0.9,0.4-0.9,0.9v3.6c-0.9,0.3-1.5,1.1-1.7,2h-0.9c-0.5,0-0.9,0.4-0.9,0.9v12h-0.9
	c-0.5,0-0.9,0.4-0.9,0.9c0,0.5,0.4,0.9,0.9,0.9h4.3V36h-2.6c-0.5,0-0.9,0.4-0.9,0.9c0,0.5,0.4,0.9,0.9,0.9h6.9
	c0.5,0,0.9-0.4,0.9-0.9c0-0.5-0.4-0.9-0.9-0.9h-2.6v-4.7h4.3c0.5,0,0.9-0.4,0.9-0.9C30,30,29.6,29.6,29.2,29.6z M24,16.3
	c0.3,0,0.6,0.2,0.7,0.4h-1.5C23.4,16.4,23.7,16.3,24,16.3z M21.4,18.4h5.2V21h-1.7c-0.5,0-0.9,0.4-0.9,0.9c0,0.5,0.4,0.9,0.9,0.9
	h1.7v0.9h-1.7c-0.5,0-0.9,0.4-0.9,0.9c0,0.5,0.4,0.9,0.9,0.9h1.7v0.9h-1.7c-0.5,0-0.9,0.4-0.9,0.9c0,0.5,0.4,0.9,0.9,0.9h1.7v1.7
	h-5.2V18.4z"/>
</svg>
