<?xml version="1.0" encoding="utf-8"?>
<!-- Generator: Adobe Illustrator 21.1.0, SVG Export Plug-In . SVG Version: 6.00 Build 0)  -->
<svg version="1.1" id="Layer_1" xmlns="http://www.w3.org/2000/svg" xmlns:xlink="http://www.w3.org/1999/xlink" x="0px" y="0px"
	 viewBox="0 0 803.5 803.5" style="enable-background:new 0 0 803.5 803.5;" xml:space="preserve">
<style type="text/css">
	.st0{fill:#594F93;}
</style>
<g>
	<path class="st0" d="M372.3,372.9c-15.4,0-27.9,12.3-27.9,27.4c0,15.1,12.5,27.4,27.9,27.4c15.4,0,27.9-12.3,27.9-27.4
		C400.2,385.2,387.7,372.9,372.3,372.9"/>
	<path class="st0" d="M401.8,496.2c-74.1,0-143.4-34.8-191.6-95.8c48.3-61.1,117.5-95.9,191.6-95.9c74.1,0,143.4,34.8,191.6,95.9
		C545.1,461.4,475.8,496.2,401.8,496.2 M622.1,392.3c-53.7-73.2-134-115.2-220.3-115.2c-86.3,0-166.6,42-220.3,115.2
		c-3.5,4.8-3.5,11.2,0,16c53.7,73.2,134,115.2,220.3,115.2c86.3,0,166.6-42,220.3-115.2C625.6,403.5,625.6,397.1,622.1,392.3"/>
	<path class="st0" d="M401.8,455.1c-30.7,0-55.7-24.6-55.7-54.8c0-30.2,25-54.8,55.7-54.8c30.7,0,55.7,24.6,55.7,54.8
		C457.5,430.5,432.5,455.1,401.8,455.1 M401.8,318.2c-46.1,0-83.6,36.9-83.6,82.2s37.5,82.2,83.6,82.2c46.1,0,83.6-36.9,83.6-82.2
		S447.9,318.2,401.8,318.2"/>
</g>
<path class="st0" d="M401.8,10.5C186.5,10.5,11.9,185,11.9,400.3c0,215.3,174.5,389.8,389.8,389.8s389.8-174.5,389.8-389.8
	C791.6,185,617.1,10.5,401.8,10.5z M401.8,769.7c-204,0-369.3-165.4-369.3-369.3C32.4,196.3,197.8,31,401.8,31
	s369.3,165.4,369.3,369.3C771.1,604.3,605.7,769.7,401.8,769.7z"/>
</svg>
