<?xml version="1.0" encoding="utf-8"?>
<!-- Generator: Adobe Illustrator 21.1.0, SVG Export Plug-In . SVG Version: 6.00 Build 0)  -->
<svg version="1.1" id="Layer_1" xmlns="http://www.w3.org/2000/svg" xmlns:xlink="http://www.w3.org/1999/xlink" x="0px" y="0px"
	 viewBox="0 0 803.5 803.5" style="enable-background:new 0 0 803.5 803.5;" xml:space="preserve">
<style type="text/css">
	.st0{fill:#585094;}
	.st1{fill:#FFFFFF;}
</style>
<path class="st0" d="M799,401c0,218.7-177.3,396-396,396C184.3,797,7,619.7,7,401C7,182.3,184.3,5,403,5C621.7,5,799,182.3,799,401"
	/>
<path class="st1" d="M403,373.3c-15.3,0-27.7,12.4-27.7,27.7c0,15.3,12.4,27.7,27.7,27.7c15.3,0,27.7-12.4,27.7-27.7
	C430.7,385.7,418.3,373.3,403,373.3"/>
<path class="st1" d="M403,497.9c-73.6,0-142.4-35.2-190.4-96.9c48-61.7,116.8-96.9,190.4-96.9c73.6,0,142.4,35.2,190.4,96.9
	C545.4,462.7,476.6,497.9,403,497.9 M621.9,392.9c-53.4-74-133.2-116.5-218.9-116.5c-85.7,0-165.5,42.5-218.9,116.5
	c-3.5,4.8-3.5,11.4,0,16.2c53.4,74,133.2,116.5,218.9,116.5c85.8,0,165.6-42.5,218.9-116.5C625.4,404.3,625.4,397.7,621.9,392.9"/>
<path class="st1" d="M403,456.4c-30.5,0-55.4-24.8-55.4-55.4c0-30.5,24.8-55.4,55.4-55.4c30.5,0,55.4,24.8,55.4,55.4
	C458.4,431.5,433.5,456.4,403,456.4 M403,317.9c-45.8,0-83.1,37.3-83.1,83.1s37.3,83.1,83.1,83.1c45.8,0,83.1-37.3,83.1-83.1
	S448.8,317.9,403,317.9"/>
</svg>
